<svg width="12" height="13" viewBox="0 0 12 13" fill="none" xmlns="http://www.w3.org/2000/svg">
<path d="M4.83594 2.77344C4.67188 2.77344 4.53906 2.63281 4.53906 2.46875C4.53906 2.30469 4.67188 2.16406 4.83594 2.16406C5.00781 2.16406 5.14062 2.30469 5.14062 2.46875C5.14062 2.63281 5.00781 2.77344 4.83594 2.77344ZM8.13281 2.77344C7.96094 2.77344 7.82813 2.63281 7.82813 2.46875C7.82813 2.30469 7.96094 2.16406 8.13281 2.16406C8.29688 2.16406 8.42969 2.30469 8.42969 2.46875C8.42969 2.63281 8.29688 2.77344 8.13281 2.77344ZM1.78906 4.21094C1.34375 4.21094 0.984375 4.57031 0.984375 5.00781V8.36719C0.984375 8.8125 1.34375 9.17187 1.78906 9.17187C2.23438 9.17187 2.58594 8.8125 2.58594 8.36719V5.00781C2.58594 4.57031 2.22656 4.21094 1.78906 4.21094ZM10.0703 4.35937H2.89844V9.5625C2.89844 10.0391 3.28125 10.4219 3.75781 10.4219H4.33594L4.34375 12.1953C4.34375 12.6406 4.70312 13 5.14062 13C5.58594 13 5.94531 12.6406 5.94531 12.1953V10.4219H7.02344V12.1953C7.02344 12.6406 7.38281 13 7.82813 13C8.27344 13 8.63281 12.6406 8.63281 12.1953V10.4219H9.21875C9.6875 10.4219 10.0703 10.0391 10.0703 9.5625V4.35937ZM8.25781 1.19531L8.8125 0.171874C8.84375 0.117187 8.82813 0.0468746 8.77344 0.0156248C8.71875 -0.00781286 8.64844 0.00781167 8.61719 0.0624992L8.05469 1.09375C7.57813 0.882812 7.04688 0.765624 6.48438 0.765624C5.92188 0.765624 5.39063 0.882812 4.91406 1.09375L4.35156 0.0624992C4.32031 0.00781167 4.25 -0.00781286 4.19531 0.0156248C4.14063 0.0468746 4.125 0.117187 4.15625 0.171874L4.71094 1.19531C3.60938 1.75781 2.86719 2.83594 2.86719 4.07812H10.0938C10.0938 2.83594 9.35156 1.75781 8.25781 1.19531ZM11.9844 5.00781C11.9844 4.5625 11.625 4.21094 11.1797 4.21094C10.7422 4.21094 10.3828 4.5625 10.3828 5.00781V8.36719C10.3828 8.8125 10.7422 9.17187 11.1797 9.17187C11.625 9.17187 11.9844 8.8125 11.9844 8.36719V5.00781Z" fill="#707070"/>
</svg>
