<svg width="11" height="13" viewBox="0 0 11 13" fill="none" xmlns="http://www.w3.org/2000/svg">
<path d="M10.8828 9.49219C10.4219 9.35156 10.0078 9.02344 9.64844 8.50781C9.28906 7.99219 9.10938 7.40625 9.10938 6.76562C9.10938 6.17187 9.28125 5.63281 9.61719 5.14844C9.80469 4.875 10.1016 4.57031 10.5078 4.22656C10.2422 3.89844 9.96875 3.63281 9.69531 3.44531C9.21094 3.10937 8.65625 2.9375 8.03125 2.9375C7.64844 2.9375 7.19531 3.03125 6.67969 3.20312C6.16406 3.38281 5.78906 3.46875 5.5625 3.46875C5.38281 3.46875 5.02344 3.39062 4.48438 3.23437C3.9375 3.07812 3.48438 3 3.10156 3C2.20313 3 1.46875 3.375 0.882813 4.125C0.296875 4.88281 0 5.85156 0 7.04687C0 8.32812 0.390625 9.63281 1.14844 10.9766C1.92188 12.3203 2.69531 13 3.5 13C3.75781 13 4.10156 12.9141 4.53125 12.7344C4.95313 12.5625 5.32813 12.4766 5.64063 12.4766C5.96094 12.4766 6.35938 12.5547 6.82031 12.7266C7.28906 12.8906 7.64844 12.9766 7.91406 12.9766C8.57813 12.9766 9.25 12.4688 9.92188 11.4453C10.375 10.7656 10.6875 10.1094 10.8828 9.49219ZM7.94531 0.328125C7.94531 0.273437 7.9375 0.226562 7.9375 0.171875C7.92969 0.124999 7.91406 0.0703119 7.89844 -9.53674e-07C6.99219 0.210937 6.33594 0.593749 5.94531 1.15625C5.55469 1.71875 5.35156 2.39062 5.33594 3.16406C5.70313 3.13281 5.96875 3.08594 6.14844 3.03125C6.42969 2.9375 6.71094 2.75 6.99219 2.46875C7.32031 2.14062 7.5625 1.78125 7.71875 1.39062C7.86719 1.00781 7.94531 0.648437 7.94531 0.328125Z" fill="#707070"/>
</svg>
