<svg width="12" height="11" viewBox="0 0 12 11" fill="none" xmlns="http://www.w3.org/2000/svg">
<path d="M11.1094 0.304687C11.0313 0.124999 10.8516 -2.38419e-07 10.6484 -2.38419e-07H0.648438C0.445313 -2.38419e-07 0.265625 0.124999 0.1875 0.304687C0.109375 0.492187 0.148438 0.710937 0.296875 0.851562L4.14844 4.70312V8.5C4.14844 8.63281 4.20313 8.75781 4.29688 8.85156L6.29688 10.8516C6.39063 10.9531 6.51563 11 6.64844 11C6.71094 11 6.78125 10.9844 6.84375 10.9609C7.02344 10.8828 7.14844 10.7031 7.14844 10.5V4.70312L11 0.851562C11.1484 0.710937 11.1875 0.492187 11.1094 0.304687Z" fill="#707070"/>
</svg>
