<svg width="9" height="14" viewBox="0 0 9 14" fill="none" xmlns="http://www.w3.org/2000/svg">
<path d="M5.02083 12.2C5.02083 12.6469 4.64583 13.0125 4.1875 13.0125C3.72917 13.0125 3.35417 12.6469 3.35417 12.2C3.35417 11.7531 3.72917 11.3875 4.1875 11.3875C4.64583 11.3875 5.02083 11.7531 5.02083 12.2ZM7.1875 10.575C7.1875 10.7477 7.03125 10.9 6.85417 10.9H1.52083C1.34375 10.9 1.1875 10.7477 1.1875 10.575V3.425C1.1875 3.25234 1.34375 3.1 1.52083 3.1H6.85417C7.03125 3.1 7.1875 3.25234 7.1875 3.425V10.575ZM5.1875 1.9625C5.1875 2.05391 5.11458 2.125 5.02083 2.125H3.35417C3.26042 2.125 3.1875 2.05391 3.1875 1.9625C3.1875 1.87109 3.26042 1.8 3.35417 1.8H5.02083C5.11458 1.8 5.1875 1.87109 5.1875 1.9625ZM8.1875 1.8C8.1875 1.08906 7.58333 0.5 6.85417 0.5H1.52083C0.791667 0.5 0.1875 1.08906 0.1875 1.8V12.2C0.1875 12.9109 0.791667 13.5 1.52083 13.5H6.85417C7.58333 13.5 8.1875 12.9109 8.1875 12.2V1.8Z" fill="#707070"/>
</svg>
