<svg width="28" height="23" viewBox="0 0 28 23" fill="none" xmlns="http://www.w3.org/2000/svg">
<path fill-rule="evenodd" clip-rule="evenodd" d="M6.0998 1.05068C6.10175 0.871942 6.17488 0.70118 6.30332 0.575473C6.43177 0.449766 6.60515 0.379263 6.78582 0.379273H21.2519C21.4324 0.379131 21.6056 0.449674 21.7336 0.575483C21.8617 0.701293 21.9342 0.872138 21.9353 1.05068V4.74121L26.9565 6.07735C27.2926 6.16402 27.4879 6.53418 27.3903 6.89494L24.3696 18.0482L24.3689 21.3902C24.3689 21.5702 24.2966 21.7429 24.168 21.8701C24.0393 21.9974 23.8648 22.0689 23.6829 22.0689H4.35187C4.16992 22.0689 3.99543 21.9974 3.86678 21.8701C3.73812 21.7429 3.66585 21.5702 3.66585 21.3902V15.5577L0.666557 7.40606C0.537796 7.05522 0.699803 6.67201 1.02645 6.55454L6.0998 4.72763V1.05068ZM16.5138 3.29854L20.9975 4.49167V1.30501H7.03759V4.38993L15.1654 1.46313C15.4925 1.34566 15.8651 1.53622 15.9944 1.88706L16.5138 3.29854ZM24.1712 6.45104C24.0425 6.32376 23.868 6.25225 23.6861 6.25225H17.6006L16.9048 4.36139L26.42 6.89336L24.3704 14.4611L24.3721 6.93096C24.3721 6.75096 24.2998 6.57832 24.1712 6.45104ZM1.63316 7.32147L3.66585 12.846V6.93096C3.66585 6.79248 3.70863 6.65836 3.78695 6.54589L1.63316 7.32147ZM15.1988 2.43648L16.6029 6.25225H4.60239L15.1988 2.43648ZM20.7962 11.954C20.7593 11.9691 20.7196 11.977 20.6796 11.977H14.8943V10.4707H20.6796C20.7603 10.4707 20.8378 10.5025 20.8949 10.559C20.952 10.6155 20.9841 10.6921 20.9841 10.772V11.6752C20.9841 11.7148 20.9763 11.754 20.961 11.7906C20.9458 11.8272 20.9234 11.8605 20.8951 11.8885C20.8668 11.9166 20.8332 11.9388 20.7962 11.954ZM20.8947 17.612C20.8376 17.6684 20.7602 17.7001 20.6796 17.7001H14.8943V16.1939H20.6796C20.7603 16.1939 20.8378 16.2256 20.8949 16.2821C20.952 16.3386 20.9841 16.4152 20.9841 16.4951V17.3994C20.9839 17.4792 20.9518 17.5557 20.8947 17.612ZM21.8084 14.7498C21.7513 14.8063 21.6738 14.838 21.5931 14.838H14.8943V13.3318H21.5931C21.6738 13.3319 21.7511 13.3637 21.8082 13.4202C21.8653 13.4766 21.8974 13.5532 21.8975 13.633V14.5368C21.8975 14.6167 21.8655 14.6933 21.8084 14.7498ZM13.2162 14.1682C13.2153 13.9389 13.1961 13.71 13.1587 13.4837H9.71855V14.8411H11.6885C11.526 15.6686 10.7914 16.2685 9.71855 16.2685C8.52276 16.2685 7.55494 15.2677 7.55494 14.0846C7.55494 12.9016 8.52487 11.9007 9.71855 11.9007C10.2395 11.8923 10.743 12.087 11.1201 12.4427L12.1629 11.411C11.5013 10.7969 10.6251 10.4601 9.71802 10.4712C9.23453 10.4655 8.75469 10.5548 8.30632 10.7338C7.85795 10.9129 7.44997 11.1782 7.10602 11.5145C6.76206 11.8507 6.48898 12.2511 6.3026 12.6925C6.11623 13.1339 6.02026 13.6076 6.02026 14.0859C6.02026 14.5643 6.11623 15.0379 6.3026 15.4793C6.48898 15.9207 6.76206 16.3212 7.10602 16.6574C7.44997 16.9936 7.85795 17.259 8.30632 17.438C8.75469 17.6171 9.23453 17.7064 9.71802 17.7006C11.8289 17.7006 13.2162 16.233 13.2162 14.1682Z" fill="#0DD0BA"/>
</svg>
