<svg width="19" height="19" viewBox="0 0 19 19" fill="none" xmlns="http://www.w3.org/2000/svg">
<path d="M5.92265 0.269371C4.97238 0.314205 4.32345 0.465854 3.75614 0.688774C3.16901 0.917588 2.67137 1.22464 2.17623 1.72156C1.68108 2.21849 1.37618 2.71648 1.14897 3.3045C0.929084 3.87306 0.780113 4.52252 0.738136 5.47332C0.69616 6.42413 0.686872 6.72975 0.691516 9.15507C0.69616 11.5804 0.706877 11.8844 0.752962 12.8372C0.798332 13.7873 0.949447 14.436 1.17237 15.0035C1.40154 15.5906 1.70824 16.0881 2.20534 16.5834C2.70245 17.0787 3.20009 17.3829 3.78954 17.6105C4.35756 17.83 5.00721 17.9797 5.95784 18.0213C6.90847 18.0629 7.21445 18.0726 9.63907 18.0679C12.0637 18.0633 12.369 18.0525 13.3216 18.0074C14.2741 17.9622 14.9195 17.81 15.4872 17.5881C16.0743 17.3584 16.5721 17.0523 17.0671 16.555C17.5621 16.0577 17.8668 15.5594 18.0938 14.971C18.3139 14.403 18.4634 13.7533 18.5046 12.8034C18.5463 11.8501 18.5561 11.5457 18.5514 9.12077C18.5468 6.69581 18.5359 6.39179 18.4907 5.43939C18.4455 4.48698 18.2942 3.84019 18.0715 3.27235C17.842 2.68522 17.5356 2.18812 17.0387 1.69245C16.5418 1.19677 16.043 0.892223 15.4548 0.665732C14.8865 0.445849 14.2372 0.295985 13.2865 0.254903C12.3359 0.21382 12.0299 0.203281 9.60442 0.207925C7.17891 0.212569 6.87525 0.222929 5.92265 0.269371ZM6.02697 16.4146C5.15619 16.3767 4.68337 16.232 4.36828 16.1109C3.95102 15.9502 3.65379 15.7558 3.33977 15.4449C3.02575 15.1339 2.83284 14.8356 2.66994 14.4192C2.54758 14.1041 2.40022 13.6319 2.35949 12.7611C2.31519 11.8199 2.30591 11.5373 2.30073 9.15292C2.29555 6.76851 2.30466 6.48629 2.34592 5.54477C2.38307 4.67471 2.52865 4.20136 2.64958 3.88645C2.81034 3.46866 3.00396 3.17197 3.31566 2.85813C3.62736 2.54429 3.92476 2.35102 4.34149 2.18812C4.65622 2.06523 5.1285 1.91912 5.99893 1.87768C6.9408 1.83302 7.22303 1.82409 9.6071 1.81891C11.9912 1.81373 12.2741 1.82266 13.2163 1.8641C14.0864 1.90197 14.5599 2.04612 14.8745 2.16776C15.2919 2.32852 15.589 2.52161 15.9028 2.83384C16.2167 3.14607 16.4101 3.4424 16.573 3.86002C16.6961 4.17385 16.8422 4.64595 16.8833 5.51691C16.9281 6.45878 16.9383 6.74118 16.9426 9.12506C16.9469 11.5089 16.9385 11.7921 16.8972 12.7332C16.8592 13.604 16.7148 14.077 16.5936 14.3924C16.4328 14.8095 16.239 15.1069 15.9271 15.4206C15.6152 15.7342 15.3182 15.9275 14.9013 16.0904C14.5869 16.2131 14.1141 16.3596 13.2444 16.401C12.3025 16.4453 12.0203 16.4546 9.63532 16.4598C7.25036 16.465 6.96902 16.4553 6.02715 16.4146M13.3078 4.36462C13.3082 4.5766 13.3714 4.78372 13.4894 4.95978C13.6075 5.13583 13.7751 5.27292 13.9711 5.3537C14.1671 5.43448 14.3827 5.45532 14.5905 5.41359C14.7983 5.37186 14.9891 5.26944 15.1388 5.11927C15.2884 4.9691 15.3901 4.77793 15.4311 4.56995C15.472 4.36196 15.4504 4.1465 15.3689 3.9508C15.2874 3.75511 15.1497 3.58799 14.9732 3.47056C14.7967 3.35313 14.5894 3.29068 14.3774 3.29111C14.0932 3.29168 13.8209 3.40509 13.6203 3.6064C13.4197 3.80771 13.3073 4.08044 13.3078 4.36462ZM5.03579 9.14685C5.04079 11.6797 7.09781 13.7283 9.63014 13.7235C12.1625 13.7187 14.2125 11.6618 14.2077 9.12899C14.2029 6.59614 12.1453 4.54699 9.61264 4.552C7.07995 4.557 5.03097 6.61436 5.03579 9.14685ZM6.64447 9.14363C6.6433 8.55482 6.81677 7.97889 7.14293 7.48867C7.46909 6.99844 7.93329 6.61595 8.47683 6.38954C9.02038 6.16314 9.61886 6.103 10.1966 6.21672C10.7743 6.33045 11.3053 6.61294 11.7225 7.02847C12.1397 7.44399 12.4243 7.9739 12.5403 8.55116C12.6563 9.12843 12.5985 9.72714 12.3743 10.2716C12.15 10.816 11.7694 11.2817 11.2805 11.6098C10.7915 11.9379 10.2163 12.1137 9.62746 12.1148C9.23649 12.1156 8.84919 12.0394 8.48767 11.8906C8.12616 11.7417 7.79751 11.523 7.5205 11.2471C7.2435 10.9712 7.02356 10.6434 6.87324 10.2825C6.72293 9.9216 6.64519 9.5346 6.64447 9.14363Z" fill="#0DD0BA"/>
</svg>
