<svg width="19" height="16" viewBox="0 0 19 16" fill="none" xmlns="http://www.w3.org/2000/svg">
<path d="M18.6242 2.34039C17.971 2.62194 17.2615 2.82467 16.5294 2.9035C17.284 2.45301 17.8584 1.7435 18.1287 0.898832C17.4304 1.31553 16.642 1.61961 15.8199 1.77728C15.1554 1.06776 14.2094 0.62854 13.162 0.62854C11.1461 0.62854 9.52435 2.26156 9.52435 4.26622C9.52435 4.54778 9.55814 4.82933 9.61445 5.09963C6.59619 4.94195 3.90453 3.5004 2.11384 1.29301C1.7985 1.83359 1.6183 2.45301 1.6183 3.12874C1.6183 4.39011 2.26025 5.50506 3.24006 6.15827C2.64316 6.13575 2.08005 5.96681 1.59578 5.69652C1.59578 5.70778 1.59578 5.73031 1.59578 5.74157C1.59578 7.50973 2.84588 8.97381 4.51268 9.31168C4.2086 9.39052 3.882 9.43556 3.5554 9.43556C3.31889 9.43556 3.09365 9.41304 2.86841 9.37925C3.33015 10.8208 4.67035 11.8682 6.26958 11.902C5.01948 12.8818 3.45404 13.4562 1.75345 13.4562C1.44937 13.4562 1.16782 13.4449 0.875 13.4111C2.48549 14.4472 4.40006 15.0441 6.46104 15.0441C13.1508 15.0441 16.811 9.50314 16.811 4.69419C16.811 4.53652 16.811 4.37885 16.7997 4.22117C17.5092 3.70311 18.1287 3.06117 18.6242 2.34039Z" fill="#0DD0BA"/>
</svg>
