<svg width="19" height="19" viewBox="0 0 19 19" fill="none" xmlns="http://www.w3.org/2000/svg">
<path d="M0.825684 0.206909V3.45456C8.88797 3.45456 15.4401 10.0067 15.4401 18.069H18.6878C18.6878 8.20424 10.6904 0.206909 0.825684 0.206909ZM0.825684 5.89029V9.13794C5.75399 9.13794 9.75672 13.1407 9.75672 18.069H13.0044C13.0044 11.3463 7.54832 5.89029 0.825684 5.89029ZM3.26142 13.1975C2.61542 13.1975 1.99588 13.4541 1.53909 13.9109C1.08231 14.3677 0.825684 14.9872 0.825684 15.6332C0.825684 16.2792 1.08231 16.8988 1.53909 17.3556C1.99588 17.8124 2.61542 18.069 3.26142 18.069C3.90742 18.069 4.52696 17.8124 4.98375 17.3556C5.44054 16.8988 5.69716 16.2792 5.69716 15.6332C5.69716 14.9872 5.44054 14.3677 4.98375 13.9109C4.52696 13.4541 3.90742 13.1975 3.26142 13.1975Z" fill="#0DD0BA"/>
</svg>
