<svg width="23" height="16" viewBox="0 0 23 16" fill="none" xmlns="http://www.w3.org/2000/svg">
<path fill-rule="evenodd" clip-rule="evenodd" d="M20.1968 0.939876C21.1343 1.19139 21.8724 1.93246 22.123 2.87355C22.5783 4.57921 22.5783 8.13796 22.5783 8.13796C22.5783 8.13796 22.5783 11.6967 22.123 13.4025C21.8724 14.3435 21.1343 15.0845 20.1968 15.3361C18.4977 15.7931 11.6844 15.7931 11.6844 15.7931C11.6844 15.7931 4.8712 15.7931 3.17207 15.3361C2.23466 15.0845 1.49635 14.3435 1.24581 13.4025C0.790527 11.6967 0.790527 8.13796 0.790527 8.13796C0.790527 8.13796 0.790527 4.57921 1.24581 2.87355C1.49635 1.93246 2.23466 1.19139 3.17207 0.939876C4.8712 0.482788 11.6844 0.482788 11.6844 0.482788C11.6844 0.482788 18.4977 0.482788 20.1968 0.939876ZM15.1482 8.13811L9.45368 11.369V4.90689L15.1482 8.13811Z" fill="#0DD0BA"/>
</svg>
