<svg width="18" height="17" viewBox="0 0 18 17" fill="none" xmlns="http://www.w3.org/2000/svg">
<path d="M17.1394 8.891C16.9964 10.4367 16.4162 11.9098 15.4666 13.1378C14.5171 14.3658 13.2374 15.298 11.7774 15.8253C10.3174 16.3526 8.73737 16.4532 7.22226 16.1153C5.70716 15.7775 4.3196 15.0151 3.22194 13.9174C2.12429 12.8198 1.36193 11.4322 1.02406 9.91713C0.686196 8.40202 0.786801 6.82202 1.3141 5.36201C1.84141 3.90199 2.7736 2.62233 4.00161 1.67276C5.22962 0.723184 6.70267 0.14297 8.24839 0C7.34295 1.22441 6.90713 2.73318 7.02022 4.2518C7.1333 5.77043 7.78778 7.198 8.86458 8.2748C9.94139 9.35161 11.369 10.0061 12.8876 10.1192C14.4062 10.2323 15.915 9.79644 17.1394 8.891Z" fill="#183A5D"/>
</svg>
